<svg width="60" height="60" viewBox="0 0 60 60" fill="none" xmlns="http://www.w3.org/2000/svg">
<rect width="60" height="60" fill="#F5F5F5"/>
<g id="HOME PAGE" clip-path="url(#clip0_0_1)">
<rect width="1440" height="2225" transform="translate(-1242 -2072)" fill="white"/>
<rect id="Rectangle 15" x="-1242" y="-234" width="1440" height="387" fill="#D8D8D8"/>
<g id="Instagram logo" clip-path="url(#clip1_0_1)">
<g id="Group">
<path id="Vector" d="M30.0094 0C17.4855 0 13.8223 0.0128906 13.1098 0.0714844C10.5398 0.285937 8.94023 0.690234 7.19765 1.55859C5.85469 2.22539 4.79531 2.99883 3.75117 4.08281C1.84687 6.05859 0.693749 8.49023 0.276561 11.3801C0.0738271 12.7828 0.0140615 13.0699 0.00234273 20.2371C-0.00234477 22.6266 0.00234273 25.7707 0.00234273 29.9883C0.00234273 42.5062 0.0164052 46.166 0.0761709 46.8773C0.283593 49.3793 0.676171 50.9531 1.50703 52.6746C3.09492 55.9699 6.12656 58.4437 9.69726 59.3672C10.9336 59.6859 12.3 59.8605 14.0531 59.9437C14.7961 59.9766 22.3687 59.9988 29.9461 59.9988C37.5234 59.9988 45.0996 59.9895 45.825 59.9531C47.8559 59.857 49.0348 59.6988 50.3379 59.3625C53.932 58.4344 56.9086 55.998 58.5281 52.6559C59.3426 50.9754 59.7551 49.3418 59.9426 46.9711C59.9836 46.4543 60 38.2113 60 29.9801C60 21.7477 59.9812 13.5199 59.9414 13.0031C59.7527 10.5937 59.3391 8.97305 58.4988 7.26094C57.8086 5.85937 57.0434 4.81172 55.9312 3.7418C53.9461 1.8457 51.5191 0.691406 48.627 0.274219C47.2242 0.0726562 46.9453 0.0128906 39.7746 0H30.0094Z" fill="url(#paint0_radial_0_1)"/>
<path id="Vector_2" d="M30.0094 0C17.4855 0 13.8223 0.0128906 13.1098 0.0714844C10.5398 0.285937 8.94023 0.690234 7.19765 1.55859C5.85469 2.22539 4.79531 2.99883 3.75117 4.08281C1.84687 6.05859 0.693749 8.49023 0.276561 11.3801C0.0738271 12.7828 0.0140615 13.0699 0.00234273 20.2371C-0.00234477 22.6266 0.00234273 25.7707 0.00234273 29.9883C0.00234273 42.5062 0.0164052 46.166 0.0761709 46.8773C0.283593 49.3793 0.676171 50.9531 1.50703 52.6746C3.09492 55.9699 6.12656 58.4437 9.69726 59.3672C10.9336 59.6859 12.3 59.8605 14.0531 59.9437C14.7961 59.9766 22.3687 59.9988 29.9461 59.9988C37.5234 59.9988 45.0996 59.9895 45.825 59.9531C47.8559 59.857 49.0348 59.6988 50.3379 59.3625C53.932 58.4344 56.9086 55.998 58.5281 52.6559C59.3426 50.9754 59.7551 49.3418 59.9426 46.9711C59.9836 46.4543 60 38.2113 60 29.9801C60 21.7477 59.9812 13.5199 59.9414 13.0031C59.7527 10.5937 59.3391 8.97305 58.4988 7.26094C57.8086 5.85937 57.0434 4.81172 55.9312 3.7418C53.9461 1.8457 51.5191 0.691406 48.627 0.274219C47.2242 0.0726562 46.9453 0.0128906 39.7746 0H30.0094Z" fill="url(#paint1_radial_0_1)"/>
<path id="Vector_3" d="M30.0094 0C17.4855 0 13.8223 0.0128906 13.1098 0.0714844C10.5398 0.285937 8.94023 0.690234 7.19765 1.55859C5.85469 2.22539 4.79531 2.99883 3.75117 4.08281C1.84687 6.05859 0.693749 8.49023 0.276561 11.3801C0.0738271 12.7828 0.0140615 13.0699 0.00234273 20.2371C-0.00234477 22.6266 0.00234273 25.7707 0.00234273 29.9883C0.00234273 42.5062 0.0164052 46.166 0.0761709 46.8773C0.283593 49.3793 0.676171 50.9531 1.50703 52.6746C3.09492 55.9699 6.12656 58.4437 9.69726 59.3672C10.9336 59.6859 12.3 59.8605 14.0531 59.9437C14.7961 59.9766 22.3687 59.9988 29.9461 59.9988C37.5234 59.9988 45.0996 59.9895 45.825 59.9531C47.8559 59.857 49.0348 59.6988 50.3379 59.3625C53.932 58.4344 56.9086 55.998 58.5281 52.6559C59.3426 50.9754 59.7551 49.3418 59.9426 46.9711C59.9836 46.4543 60 38.2113 60 29.9801C60 21.7477 59.9812 13.5199 59.9414 13.0031C59.7527 10.5937 59.3391 8.97305 58.4988 7.26094C57.8086 5.85937 57.0434 4.81172 55.9312 3.7418C53.9461 1.8457 51.5191 0.691406 48.627 0.274219C47.2242 0.0726562 46.9453 0.0128906 39.7746 0H30.0094Z" fill="url(#paint2_radial_0_1)"/>
<path id="Vector_4" d="M30.0094 0C17.4855 0 13.8223 0.0128906 13.1098 0.0714844C10.5398 0.285937 8.94023 0.690234 7.19765 1.55859C5.85469 2.22539 4.79531 2.99883 3.75117 4.08281C1.84687 6.05859 0.693749 8.49023 0.276561 11.3801C0.0738271 12.7828 0.0140615 13.0699 0.00234273 20.2371C-0.00234477 22.6266 0.00234273 25.7707 0.00234273 29.9883C0.00234273 42.5062 0.0164052 46.166 0.0761709 46.8773C0.283593 49.3793 0.676171 50.9531 1.50703 52.6746C3.09492 55.9699 6.12656 58.4437 9.69726 59.3672C10.9336 59.6859 12.3 59.8605 14.0531 59.9437C14.7961 59.9766 22.3687 59.9988 29.9461 59.9988C37.5234 59.9988 45.0996 59.9895 45.825 59.9531C47.8559 59.857 49.0348 59.6988 50.3379 59.3625C53.932 58.4344 56.9086 55.998 58.5281 52.6559C59.3426 50.9754 59.7551 49.3418 59.9426 46.9711C59.9836 46.4543 60 38.2113 60 29.9801C60 21.7477 59.9812 13.5199 59.9414 13.0031C59.7527 10.5937 59.3391 8.97305 58.4988 7.26094C57.8086 5.85937 57.0434 4.81172 55.9312 3.7418C53.9461 1.8457 51.5191 0.691406 48.627 0.274219C47.2242 0.0726562 46.9453 0.0128906 39.7746 0H30.0094Z" fill="url(#paint3_radial_0_1)"/>
<path id="Vector_5" d="M30.0117 7.70386C23.9531 7.70386 23.1926 7.73081 20.8137 7.83862C18.4383 7.94761 16.8176 8.32261 15.3996 8.87456C13.9324 9.44409 12.6879 10.2058 11.448 11.4445C10.207 12.6832 9.44531 13.9277 8.87344 15.3925C8.32031 16.8105 7.94414 18.4312 7.8375 20.8031C7.73086 23.1808 7.70274 23.9414 7.70274 29.9953C7.70274 36.0492 7.72969 36.8074 7.8375 39.1851C7.94649 41.5582 8.32266 43.1777 8.87344 44.5957C9.44414 46.0617 10.2059 47.305 11.4469 48.5449C12.6867 49.7847 13.9313 50.5488 15.3973 51.1183C16.8164 51.6691 18.4383 52.0453 20.8125 52.1542C23.1926 52.2621 23.952 52.289 30.0105 52.289C36.0691 52.289 36.8273 52.2621 39.2074 52.1542C41.5828 52.0453 43.2059 51.6703 44.625 51.1183C46.0922 50.5488 47.3344 49.7859 48.5742 48.546C49.8152 47.3074 50.577 46.0628 51.1488 44.598C51.6973 43.18 52.0734 41.5593 52.1848 39.1875C52.2914 36.8097 52.3195 36.0515 52.3195 29.9976C52.3195 23.9437 52.2914 23.1832 52.1848 20.8054C52.0734 18.4324 51.6973 16.8128 51.1488 15.3949C50.577 13.9289 49.8152 12.6855 48.5742 11.4457C47.3332 10.2058 46.0922 9.44409 44.6238 8.87456C43.2012 8.32378 41.5793 7.94761 39.2051 7.83862C36.825 7.73081 36.068 7.70386 30.007 7.70386H30.0117ZM28.0113 11.721C28.6055 11.7199 29.2676 11.721 30.0129 11.721C35.9695 11.721 36.675 11.7421 39.027 11.8488C41.202 11.9484 42.382 12.3117 43.1684 12.6164C44.209 13.0207 44.952 13.5035 45.7324 14.2839C46.5129 15.0644 46.9969 15.8074 47.4023 16.848C47.7082 17.6332 48.0715 18.8121 48.1711 20.9859C48.2777 23.3355 48.3012 24.0421 48.3012 29.9906C48.3012 35.9402 48.2777 36.6457 48.1711 38.9953C48.0715 41.1691 47.7082 42.348 47.4023 43.1332C46.998 44.1738 46.5141 44.9144 45.7324 45.6937C44.952 46.4742 44.2102 46.957 43.1684 47.3613C42.3832 47.6683 41.202 48.0304 39.027 48.1289C36.675 48.2355 35.9684 48.2589 30.0129 48.2589C24.0562 48.2589 23.3496 48.2355 20.9988 48.1289C18.8238 48.0281 17.6438 47.666 16.8563 47.3601C15.8156 46.9558 15.0715 46.473 14.291 45.6925C13.5105 44.9121 13.0266 44.1714 12.6211 43.1308C12.3152 42.3457 11.952 41.1667 11.8523 38.9929C11.7457 36.6433 11.7246 35.9367 11.7246 29.9847C11.7246 24.0316 11.7457 23.3296 11.8523 20.98C11.952 18.8062 12.3152 17.6273 12.6211 16.841C13.0254 15.8003 13.5094 15.0574 14.291 14.2769C15.0715 13.4964 15.8156 13.0136 16.8563 12.6082C17.6426 12.3011 18.8238 11.939 20.9988 11.8394C23.0566 11.7468 23.8547 11.7187 28.0125 11.714L28.0113 11.721ZM41.9203 15.423C40.4426 15.423 39.2438 16.6195 39.2438 18.0972C39.2438 19.5738 40.4426 20.7726 41.9203 20.7726C43.398 20.7726 44.5969 19.575 44.5969 18.0972C44.5969 16.6195 43.398 15.4218 41.9203 15.423ZM30.0117 18.5484C23.6848 18.5484 18.5555 23.6742 18.5555 29.9964C18.5555 36.3187 23.6848 41.4421 30.0117 41.4421C36.3387 41.4421 41.4656 36.3187 41.4656 29.9964C41.4656 23.6742 36.3387 18.5484 30.0117 18.5484ZM30.0117 22.5656C34.118 22.5656 37.4484 25.8925 37.4484 29.9964C37.4484 34.1003 34.1191 37.4273 30.0117 37.4273C25.9043 37.4273 22.575 34.1003 22.575 29.9964C22.5762 25.8914 25.9055 22.5656 30.0117 22.5656Z" fill="white"/>
</g>
</g>
</g>
<defs>
<radialGradient id="paint0_radial_0_1" cx="0" cy="0" r="1" gradientUnits="userSpaceOnUse" gradientTransform="translate(58.063 28.1231) rotate(164.251) scale(38.3367 27.6198)">
<stop stop-color="#FF005F"/>
<stop offset="1" stop-color="#FC01D8"/>
</radialGradient>
<radialGradient id="paint1_radial_0_1" cx="0" cy="0" r="1" gradientUnits="userSpaceOnUse" gradientTransform="translate(15.9371 64.6213) rotate(-90) scale(47.8932 50.8138)">
<stop stop-color="#FFCC00"/>
<stop offset="0.1242" stop-color="#FFCC00"/>
<stop offset="0.5672" stop-color="#FE4A05"/>
<stop offset="0.6942" stop-color="#FF0F3F"/>
<stop offset="1" stop-color="#FE0657" stop-opacity="0"/>
</radialGradient>
<radialGradient id="paint2_radial_0_1" cx="0" cy="0" r="1" gradientUnits="userSpaceOnUse" gradientTransform="translate(31.5157 59.1536) rotate(-59.8697) scale(19.8042 25.783)">
<stop stop-color="#FFCC00"/>
<stop offset="1" stop-color="#FFCC00" stop-opacity="0"/>
</radialGradient>
<radialGradient id="paint3_radial_0_1" cx="0" cy="0" r="1" gradientUnits="userSpaceOnUse" gradientTransform="translate(8.14086 2.44515) rotate(164.274) scale(37.9113 12.9165)">
<stop stop-color="#780CFF"/>
<stop offset="1" stop-color="#820BFF" stop-opacity="0"/>
</radialGradient>
<clipPath id="clip0_0_1">
<rect width="1440" height="2225" fill="white" transform="translate(-1242 -2072)"/>
</clipPath>
<clipPath id="clip1_0_1">
<rect width="60" height="60" fill="white"/>
</clipPath>
</defs>
</svg>
